# xmcd
# 
# Track frame offsets:
#     150
#     10549
#     23453
#     44325
#     66713
#     86183
#     100062
#     115388
#     134606
#     151412
#     164637
#     189849
#     210775
#     231225
#     243396
#     257870
#     277970
# 
# Disc length: 4044
# 
# Revision: 1
# Processed by: cddbd v1.5.2PL0 Copyright (c) Steve Scherf et al.
# Submitted via: fre:ac v1.0.31
# 
DISCID=e50fca11
DTITLE=Various Artist - StoMo's Artist Collection: Blues and Boogie Vol. 9
DYEAR=2016
DGENRE=Blues
TTITLE0=Nico Brina - 25 Hours 8 Days A Week
TTITLE1=Hot Lips - Heartbeat Boogie
TTITLE2=Marcos Coll and Stefano Ronchi - Long legs blues
TTITLE3=Steve 'Big Man' Clayton - Aint That Good Lovin'
TTITLE4=Al Jones - People
TTITLE5=Handful Of Blues - Doozy Doozy Doozy
TTITLE6=Have Mercy Reunion - Hair parted in the middle
TTITLE7=Farrell and Black - BobbySoxBaby
TTITLE8=Fast Eddy - Tuff Enough
TTITLE9=Hot Lips - Boogie Woogie Bugle Boy
TTITLE10=Little Willie Littlefield - Jammin On Soft Winds
TTITLE11=Andi's Blues Orchester - Rollin' and tumblin'
TTITLE12=Henning Pertiet - Bluestime!
TTITLE13=Street Rats - King Of The Hill
TTITLE14=Handful Of Blues - Leaving New York
TTITLE15=Marcos Coll and Stefano Ronchi - Hip Harp
TTITLE16=Tin Pan Alley (TPA) - In the fields
EXTD=
EXTT0=
EXTT1=
EXTT2=
EXTT3=
EXTT4=
EXTT5=
EXTT6=
EXTT7=
EXTT8=
EXTT9=
EXTT10=
EXTT11=
EXTT12=
EXTT13=
EXTT14=
EXTT15=
EXTT16=
PLAYORDER=
